G04 Layer_Color=8388736*
%FSLAX25Y25*%
%MOIN*%
G70*
G01*
G75*
%ADD44R,0.03162X0.02769*%
%ADD45O,0.08674X0.01784*%
%ADD46O,0.01784X0.08674*%
%ADD47R,0.02000X0.03600*%
%ADD48R,0.03600X0.02000*%
%ADD49R,0.01900X0.07350*%
%ADD50R,0.07350X0.01900*%
G04:AMPARAMS|DCode=51|XSize=35.56mil|YSize=86.74mil|CornerRadius=10.89mil|HoleSize=0mil|Usage=FLASHONLY|Rotation=0.000|XOffset=0mil|YOffset=0mil|HoleType=Round|Shape=RoundedRectangle|*
%AMROUNDEDRECTD51*
21,1,0.03556,0.06496,0,0,0.0*
21,1,0.01378,0.08674,0,0,0.0*
1,1,0.02178,0.00689,-0.03248*
1,1,0.02178,-0.00689,-0.03248*
1,1,0.02178,-0.00689,0.03248*
1,1,0.02178,0.00689,0.03248*
%
%ADD51ROUNDEDRECTD51*%
G04:AMPARAMS|DCode=52|XSize=35.56mil|YSize=35.56mil|CornerRadius=10.89mil|HoleSize=0mil|Usage=FLASHONLY|Rotation=0.000|XOffset=0mil|YOffset=0mil|HoleType=Round|Shape=RoundedRectangle|*
%AMROUNDEDRECTD52*
21,1,0.03556,0.01378,0,0,0.0*
21,1,0.01378,0.03556,0,0,0.0*
1,1,0.02178,0.00689,-0.00689*
1,1,0.02178,-0.00689,-0.00689*
1,1,0.02178,-0.00689,0.00689*
1,1,0.02178,0.00689,0.00689*
%
%ADD52ROUNDEDRECTD52*%
%ADD53R,0.02769X0.03162*%
%ADD54R,0.05354X0.03780*%
%ADD55R,0.02992X0.03976*%
%ADD56C,0.06706*%
%ADD57R,0.06706X0.06706*%
%ADD58C,0.02200*%
%ADD59C,0.04343*%
D44*
X258968Y297000D02*
D03*
X255031D02*
D03*
X255000Y353000D02*
D03*
X251063D02*
D03*
X280532Y291500D02*
D03*
X284469D02*
D03*
X291032D02*
D03*
X294969D02*
D03*
X264000Y353000D02*
D03*
X260063D02*
D03*
D45*
X264787Y307921D02*
D03*
Y309890D02*
D03*
Y311858D02*
D03*
Y313827D02*
D03*
Y315795D02*
D03*
Y317764D02*
D03*
Y319732D02*
D03*
Y321701D02*
D03*
Y323669D02*
D03*
Y325638D02*
D03*
Y327606D02*
D03*
Y329575D02*
D03*
Y331543D02*
D03*
Y333512D02*
D03*
Y335480D02*
D03*
Y337449D02*
D03*
Y339417D02*
D03*
Y341386D02*
D03*
Y343354D02*
D03*
Y345323D02*
D03*
X315968Y345323D02*
D03*
Y343354D02*
D03*
Y341386D02*
D03*
Y339417D02*
D03*
Y337449D02*
D03*
Y335480D02*
D03*
Y333512D02*
D03*
Y331543D02*
D03*
Y329575D02*
D03*
Y327606D02*
D03*
Y325638D02*
D03*
Y323669D02*
D03*
Y321701D02*
D03*
Y319732D02*
D03*
Y317764D02*
D03*
Y315795D02*
D03*
Y313827D02*
D03*
Y311858D02*
D03*
Y309890D02*
D03*
Y307921D02*
D03*
D46*
X271874Y352213D02*
D03*
X273843D02*
D03*
X275811D02*
D03*
X277780D02*
D03*
X279748D02*
D03*
X281716D02*
D03*
X283685D02*
D03*
X285653D02*
D03*
X287622D02*
D03*
X289591D02*
D03*
X291559D02*
D03*
X293528D02*
D03*
X295496D02*
D03*
X297465D02*
D03*
X299433D02*
D03*
X301402D02*
D03*
X303370D02*
D03*
X305339D02*
D03*
X307307D02*
D03*
X309276D02*
D03*
X309079Y301031D02*
D03*
X307110D02*
D03*
X305142D02*
D03*
X303173D02*
D03*
X301205D02*
D03*
X299236D02*
D03*
X297268D02*
D03*
X295299D02*
D03*
X293331D02*
D03*
X291362D02*
D03*
X289394D02*
D03*
X287425D02*
D03*
X285457D02*
D03*
X283488D02*
D03*
X281520D02*
D03*
X279551D02*
D03*
X277583D02*
D03*
X275614D02*
D03*
X273646D02*
D03*
X271677D02*
D03*
D47*
X339930Y339141D02*
D03*
X337962D02*
D03*
X335993D02*
D03*
X334009D02*
D03*
X332009D02*
D03*
X330009D02*
D03*
Y353922D02*
D03*
X332009D02*
D03*
X334009D02*
D03*
X335993D02*
D03*
X337962D02*
D03*
X339930D02*
D03*
D48*
X327609Y341541D02*
D03*
Y343541D02*
D03*
Y345541D02*
D03*
Y347525D02*
D03*
Y349493D02*
D03*
Y351462D02*
D03*
X342391D02*
D03*
Y349493D02*
D03*
Y347525D02*
D03*
Y345541D02*
D03*
Y343541D02*
D03*
Y341541D02*
D03*
D49*
X381264Y284375D02*
D03*
X379295D02*
D03*
X377327D02*
D03*
X375358D02*
D03*
X373390D02*
D03*
X371421D02*
D03*
X369453D02*
D03*
X367484D02*
D03*
X365516D02*
D03*
X363547D02*
D03*
X361579D02*
D03*
X359610D02*
D03*
X357642D02*
D03*
X355673D02*
D03*
X353705D02*
D03*
X351736D02*
D03*
Y328625D02*
D03*
X353705D02*
D03*
X355673D02*
D03*
X357642D02*
D03*
X359610D02*
D03*
X361579D02*
D03*
X363547D02*
D03*
X365516D02*
D03*
X367484D02*
D03*
X369453D02*
D03*
X371421D02*
D03*
X373390D02*
D03*
X375358D02*
D03*
X377327D02*
D03*
X379295D02*
D03*
X381264D02*
D03*
D50*
X344375Y291736D02*
D03*
Y293705D02*
D03*
Y295673D02*
D03*
Y297642D02*
D03*
Y299610D02*
D03*
Y301579D02*
D03*
Y303547D02*
D03*
Y305516D02*
D03*
Y307484D02*
D03*
Y309453D02*
D03*
Y311421D02*
D03*
Y313390D02*
D03*
Y315358D02*
D03*
Y317327D02*
D03*
Y319295D02*
D03*
Y321264D02*
D03*
X388625D02*
D03*
Y319295D02*
D03*
Y317327D02*
D03*
Y315358D02*
D03*
Y313390D02*
D03*
Y311421D02*
D03*
Y309453D02*
D03*
Y307484D02*
D03*
Y305516D02*
D03*
Y303547D02*
D03*
Y301579D02*
D03*
Y299610D02*
D03*
Y297642D02*
D03*
Y295673D02*
D03*
Y293705D02*
D03*
Y291736D02*
D03*
D51*
X268000Y286524D02*
D03*
X274000D02*
D03*
X256000D02*
D03*
D52*
X250500Y275500D02*
D03*
Y283500D02*
D03*
X279500D02*
D03*
Y275500D02*
D03*
D53*
X330000Y273969D02*
D03*
Y270031D02*
D03*
X320500Y273969D02*
D03*
Y270031D02*
D03*
X325000Y273969D02*
D03*
Y270031D02*
D03*
X251000Y340531D02*
D03*
Y344468D02*
D03*
X255500Y340531D02*
D03*
Y344468D02*
D03*
X352000Y339563D02*
D03*
Y343500D02*
D03*
X352000Y353000D02*
D03*
Y349063D02*
D03*
X363500Y339531D02*
D03*
Y343468D02*
D03*
X358500Y339531D02*
D03*
Y343468D02*
D03*
X306000Y273969D02*
D03*
Y270031D02*
D03*
X310500Y273969D02*
D03*
Y270031D02*
D03*
X368500Y339531D02*
D03*
Y343468D02*
D03*
X378500Y343468D02*
D03*
Y339531D02*
D03*
X373500Y343468D02*
D03*
Y339531D02*
D03*
X335500Y271969D02*
D03*
Y268032D02*
D03*
X316000Y270031D02*
D03*
Y273969D02*
D03*
X387000Y343468D02*
D03*
Y339531D02*
D03*
X391500Y343468D02*
D03*
Y339531D02*
D03*
X253500Y321532D02*
D03*
Y325468D02*
D03*
X256000Y330532D02*
D03*
Y334469D02*
D03*
X251000Y334469D02*
D03*
Y330532D02*
D03*
X313500Y296969D02*
D03*
Y293032D02*
D03*
X323500Y296969D02*
D03*
Y293032D02*
D03*
X318500Y296969D02*
D03*
Y293032D02*
D03*
D54*
X299890Y270717D02*
D03*
X286110D02*
D03*
D55*
X295362Y285579D02*
D03*
X290638D02*
D03*
D56*
X344000Y267500D02*
D03*
X354000D02*
D03*
X364000D02*
D03*
X374000D02*
D03*
X384000D02*
D03*
D57*
X394000D02*
D03*
D58*
X289591Y339591D02*
D03*
X305500Y328500D02*
D03*
X298500D02*
D03*
X296500Y327000D02*
D03*
X308500Y328500D02*
D03*
X282000Y326500D02*
D03*
Y331500D02*
D03*
X295500Y317500D02*
D03*
X284000Y337500D02*
D03*
X274949Y337449D02*
D03*
X300500Y315500D02*
D03*
X304500Y314000D02*
D03*
X289000Y318000D02*
D03*
X299000Y288500D02*
D03*
Y309500D02*
D03*
X309000D02*
D03*
X303500Y278500D02*
D03*
Y291500D02*
D03*
X328000Y290000D02*
D03*
X370173Y317327D02*
D03*
X372705Y319295D02*
D03*
X374736Y321264D02*
D03*
X396000Y291736D02*
D03*
Y295673D02*
D03*
X398000Y293705D02*
D03*
Y297642D02*
D03*
X395890Y299610D02*
D03*
X397921Y301579D02*
D03*
X395953Y303547D02*
D03*
X397984Y305516D02*
D03*
X395984Y307484D02*
D03*
X397953Y309453D02*
D03*
X395921Y311421D02*
D03*
X397890Y313390D02*
D03*
X396000Y315358D02*
D03*
X308500Y318000D02*
D03*
X310000Y322000D02*
D03*
X355000Y292000D02*
D03*
X328500Y308500D02*
D03*
Y298500D02*
D03*
X331000Y343500D02*
D03*
X333500Y343000D02*
D03*
X315500Y305000D02*
D03*
Y302000D02*
D03*
X329500Y324500D02*
D03*
X330000Y321000D02*
D03*
X328000Y317764D02*
D03*
Y313827D02*
D03*
X311000Y352213D02*
D03*
X305500Y343500D02*
D03*
X307000Y345000D02*
D03*
X308750Y346750D02*
D03*
X365000Y348000D02*
D03*
X392000Y350500D02*
D03*
X283500Y309000D02*
D03*
X316500Y353500D02*
D03*
X319000Y355000D02*
D03*
X288000Y309000D02*
D03*
X311500Y348000D02*
D03*
X249000Y327000D02*
D03*
X321500Y356500D02*
D03*
X326500Y358000D02*
D03*
X248000Y324000D02*
D03*
X316000Y350000D02*
D03*
X381500Y348532D02*
D03*
X371831Y348331D02*
D03*
X264000Y284020D02*
D03*
X310500Y264500D02*
D03*
X325000Y266500D02*
D03*
X397000Y322500D02*
D03*
X396000Y340500D02*
D03*
X399969Y340531D02*
D03*
X401500Y320500D02*
D03*
X367500Y347500D02*
D03*
X382500Y345500D02*
D03*
X392000Y355500D02*
D03*
X257000Y348000D02*
D03*
X293000Y345500D02*
D03*
X330500Y294000D02*
D03*
X326500Y304000D02*
D03*
X371421Y278579D02*
D03*
X360000Y290000D02*
D03*
X367484Y278516D02*
D03*
X359000Y268000D02*
D03*
X300500Y283500D02*
D03*
X298500Y277500D02*
D03*
X285500Y275000D02*
D03*
X281000Y287500D02*
D03*
X280500Y294000D02*
D03*
X316000Y290000D02*
D03*
X326500Y294000D02*
D03*
X349000Y268000D02*
D03*
X380500Y357500D02*
D03*
X391000Y278500D02*
D03*
X257500Y293000D02*
D03*
X260500Y292000D02*
D03*
X324500Y332000D02*
D03*
D59*
X259000Y279500D02*
D03*
X271000D02*
D03*
M02*
