M48
;Layer_Color=9474304
;FILE_FORMAT=2:5
INCH,LZ
;TYPE=PLATED
T1F00S00C0.00800
T2F00S00C0.03543
%
T01
X0325Y02665
X0349Y0268
X0359
X0367484Y0278516
X0371421Y0278579
X0391Y02785
X0396Y0291736
Y0295673
X0398Y0297642
Y0293705
X0397921Y0301579
X0395953Y0303547
X0395984Y0307484
X0397953Y0309453
X0397984Y0305516
X0395921Y0311421
X039589Y029961
X036Y029
X0355Y0292
X03305Y0294
X03265
X0328Y029
X03285Y02985
X03265Y0304
X03285Y03085
X03155Y0305
Y0302
X0316Y029
X03035Y02915
X0299Y02885
X03005Y02835
X03035Y02785
X02985Y02775
X02855Y0275
X0281Y02875
X02805Y0294
X02835Y0309
X0288
X0299Y03095
X0309
X03105Y02645
X0264Y028402
X02605Y0292
X02575Y0293
X0248Y0324
X0249Y0327
X0257Y0348
X0274949Y0337449
X0284Y03375
X0289591Y0339591
X0293Y03455
X03055Y03435
X0307Y0345
X030875Y034675
X03115Y0348
X0311Y0352213
X03085Y03285
X03055
X02985
X02965Y0327
X02955Y03175
X03005Y03155
X03045Y0314
X03085Y0318
X031Y0322
X0289Y0318
X0282Y03265
Y03315
X03245Y0332
X03295Y03245
X033Y0321
X0328Y0317764
Y0313827
X0331Y03435
X03335Y0343
X03265Y0358
X03215Y03565
X0319Y0355
X03165Y03535
X0316Y035
X0365Y0348
X03675Y03475
X0371831Y0348331
X03815Y0348532
X03825Y03455
X03805Y03575
X0392Y03555
Y03505
X0396Y03405
X0399969Y0340531
X0397Y03225
X04015Y03205
X0396Y0315358
X039789Y031339
X0374736Y0321264
X0372705Y0319295
X0370173Y0317327
T02
X0344Y02675
X0354
X0364
X0374
X0384
X0394
X0271Y02795
X0259
M30
