G04 Layer_Color=16711935*
%FSLAX25Y25*%
%MOIN*%
G70*
G01*
G75*
%ADD44R,0.03162X0.02769*%
%ADD53R,0.02769X0.03162*%
%ADD56C,0.06706*%
%ADD57R,0.06706X0.06706*%
%ADD58C,0.02200*%
%ADD59C,0.04343*%
%ADD60R,0.10827X0.05315*%
%ADD61R,0.04737X0.03556*%
%ADD62R,0.04737X0.03359*%
G04:AMPARAMS|DCode=63|XSize=43.43mil|YSize=39.5mil|CornerRadius=11.87mil|HoleSize=0mil|Usage=FLASHONLY|Rotation=90.000|XOffset=0mil|YOffset=0mil|HoleType=Round|Shape=RoundedRectangle|*
%AMROUNDEDRECTD63*
21,1,0.04343,0.01575,0,0,90.0*
21,1,0.01969,0.03950,0,0,90.0*
1,1,0.02375,0.00787,0.00984*
1,1,0.02375,0.00787,-0.00984*
1,1,0.02375,-0.00787,-0.00984*
1,1,0.02375,-0.00787,0.00984*
%
%ADD63ROUNDEDRECTD63*%
%ADD64R,0.03950X0.04343*%
G04:AMPARAMS|DCode=65|XSize=47mil|YSize=20mil|CornerRadius=10mil|HoleSize=0mil|Usage=FLASHONLY|Rotation=270.000|XOffset=0mil|YOffset=0mil|HoleType=Round|Shape=RoundedRectangle|*
%AMROUNDEDRECTD65*
21,1,0.04700,0.00000,0,0,270.0*
21,1,0.02700,0.02000,0,0,270.0*
1,1,0.02000,0.00000,-0.01350*
1,1,0.02000,0.00000,0.01350*
1,1,0.02000,0.00000,0.01350*
1,1,0.02000,0.00000,-0.01350*
%
%ADD65ROUNDEDRECTD65*%
G04:AMPARAMS|DCode=66|XSize=47mil|YSize=20mil|CornerRadius=10mil|HoleSize=0mil|Usage=FLASHONLY|Rotation=0.000|XOffset=0mil|YOffset=0mil|HoleType=Round|Shape=RoundedRectangle|*
%AMROUNDEDRECTD66*
21,1,0.04700,0.00000,0,0,0.0*
21,1,0.02700,0.02000,0,0,0.0*
1,1,0.02000,0.01350,0.00000*
1,1,0.02000,-0.01350,0.00000*
1,1,0.02000,-0.01350,0.00000*
1,1,0.02000,0.01350,0.00000*
%
%ADD66ROUNDEDRECTD66*%
%ADD67R,0.07887X0.01784*%
%ADD68R,0.10446X0.04800*%
D44*
X388469Y348500D02*
D03*
X384531D02*
D03*
X390032Y318500D02*
D03*
X393969D02*
D03*
X408968Y339000D02*
D03*
X405031D02*
D03*
X405031Y334000D02*
D03*
X408968D02*
D03*
X408968Y329500D02*
D03*
X405031D02*
D03*
X255031Y297000D02*
D03*
X258968D02*
D03*
X408968Y320500D02*
D03*
X405031D02*
D03*
X408968Y325000D02*
D03*
X405031D02*
D03*
X405031Y348500D02*
D03*
X408968D02*
D03*
X405031Y344000D02*
D03*
X408968D02*
D03*
X384531Y353000D02*
D03*
X388469D02*
D03*
X380031Y318500D02*
D03*
X383968D02*
D03*
X399969Y344000D02*
D03*
X396031D02*
D03*
X399969Y348500D02*
D03*
X396031D02*
D03*
X399969Y353000D02*
D03*
X396031D02*
D03*
D53*
X254500Y288032D02*
D03*
Y291968D02*
D03*
X274500Y270532D02*
D03*
Y274468D02*
D03*
X269500Y270532D02*
D03*
Y274468D02*
D03*
X264500Y270532D02*
D03*
Y274468D02*
D03*
X259500Y270532D02*
D03*
Y274468D02*
D03*
X254500Y270532D02*
D03*
Y274468D02*
D03*
X275000Y288032D02*
D03*
Y291968D02*
D03*
X269500Y288032D02*
D03*
Y291968D02*
D03*
X264500Y288032D02*
D03*
Y291968D02*
D03*
X254500Y283469D02*
D03*
Y279532D02*
D03*
X378500Y352468D02*
D03*
Y348532D02*
D03*
D56*
X344000Y267500D02*
D03*
X354000D02*
D03*
X364000D02*
D03*
X374000D02*
D03*
X384000D02*
D03*
D57*
X394000D02*
D03*
D58*
X289591Y339591D02*
D03*
X305500Y328500D02*
D03*
X298500D02*
D03*
X296500Y327000D02*
D03*
X308500Y328500D02*
D03*
X282000Y326500D02*
D03*
Y331500D02*
D03*
X295500Y317500D02*
D03*
X284000Y337500D02*
D03*
X274949Y337449D02*
D03*
X300500Y315500D02*
D03*
X304500Y314000D02*
D03*
X289000Y318000D02*
D03*
X299000Y288500D02*
D03*
Y309500D02*
D03*
X309000D02*
D03*
X303500Y278500D02*
D03*
Y291500D02*
D03*
X328000Y290000D02*
D03*
X370173Y317327D02*
D03*
X372705Y319295D02*
D03*
X374736Y321264D02*
D03*
X396000Y291736D02*
D03*
Y295673D02*
D03*
X398000Y293705D02*
D03*
Y297642D02*
D03*
X395890Y299610D02*
D03*
X397921Y301579D02*
D03*
X395953Y303547D02*
D03*
X397984Y305516D02*
D03*
X395984Y307484D02*
D03*
X397953Y309453D02*
D03*
X395921Y311421D02*
D03*
X397890Y313390D02*
D03*
X396000Y315358D02*
D03*
X308500Y318000D02*
D03*
X310000Y322000D02*
D03*
X355000Y292000D02*
D03*
X328500Y308500D02*
D03*
Y298500D02*
D03*
X331000Y343500D02*
D03*
X333500Y343000D02*
D03*
X315500Y305000D02*
D03*
Y302000D02*
D03*
X329500Y324500D02*
D03*
X330000Y321000D02*
D03*
X328000Y317764D02*
D03*
Y313827D02*
D03*
X311000Y352213D02*
D03*
X305500Y343500D02*
D03*
X307000Y345000D02*
D03*
X308750Y346750D02*
D03*
X365000Y348000D02*
D03*
X392000Y350500D02*
D03*
X283500Y309000D02*
D03*
X316500Y353500D02*
D03*
X319000Y355000D02*
D03*
X288000Y309000D02*
D03*
X311500Y348000D02*
D03*
X249000Y327000D02*
D03*
X321500Y356500D02*
D03*
X326500Y358000D02*
D03*
X248000Y324000D02*
D03*
X316000Y350000D02*
D03*
X381500Y348532D02*
D03*
X371831Y348331D02*
D03*
X264000Y284020D02*
D03*
X310500Y264500D02*
D03*
X325000Y266500D02*
D03*
X397000Y322500D02*
D03*
X396000Y340500D02*
D03*
X399969Y340531D02*
D03*
X401500Y320500D02*
D03*
X367500Y347500D02*
D03*
X382500Y345500D02*
D03*
X392000Y355500D02*
D03*
X257000Y348000D02*
D03*
X293000Y345500D02*
D03*
X330500Y294000D02*
D03*
X326500Y304000D02*
D03*
X371421Y278579D02*
D03*
X360000Y290000D02*
D03*
X367484Y278516D02*
D03*
X359000Y268000D02*
D03*
X300500Y283500D02*
D03*
X298500Y277500D02*
D03*
X285500Y275000D02*
D03*
X281000Y287500D02*
D03*
X280500Y294000D02*
D03*
X316000Y290000D02*
D03*
X326500Y294000D02*
D03*
X349000Y268000D02*
D03*
X380500Y357500D02*
D03*
X391000Y278500D02*
D03*
X257500Y293000D02*
D03*
X260500Y292000D02*
D03*
X324500Y332000D02*
D03*
D59*
X259000Y279500D02*
D03*
X271000D02*
D03*
D60*
X409000Y281019D02*
D03*
D61*
X285500Y271000D02*
D03*
Y278480D02*
D03*
X294969Y291500D02*
D03*
Y284020D02*
D03*
D62*
X294949Y274740D02*
D03*
Y271000D02*
D03*
Y278480D02*
D03*
X285520Y287760D02*
D03*
Y291500D02*
D03*
Y284020D02*
D03*
D63*
X367500Y338500D02*
D03*
D64*
Y344012D02*
D03*
X371831D02*
D03*
Y338500D02*
D03*
D65*
X384607Y323810D02*
D03*
X386548D02*
D03*
X388490D02*
D03*
X390490D02*
D03*
X384607Y340190D02*
D03*
X386549D02*
D03*
X388490D02*
D03*
X390490D02*
D03*
X392390D02*
D03*
Y323810D02*
D03*
D66*
X380310Y328110D02*
D03*
Y330010D02*
D03*
Y332010D02*
D03*
Y333951D02*
D03*
Y335893D02*
D03*
X396690Y335893D02*
D03*
Y333951D02*
D03*
Y332010D02*
D03*
Y330010D02*
D03*
Y328110D02*
D03*
D67*
X321126Y321280D02*
D03*
Y319311D02*
D03*
Y317342D02*
D03*
Y315374D02*
D03*
Y313405D02*
D03*
X336874D02*
D03*
Y315374D02*
D03*
Y317342D02*
D03*
Y319311D02*
D03*
Y321280D02*
D03*
Y311437D02*
D03*
Y309469D02*
D03*
Y307500D02*
D03*
Y305532D02*
D03*
Y303563D02*
D03*
Y301594D02*
D03*
Y299626D02*
D03*
Y297657D02*
D03*
Y295689D02*
D03*
Y293721D02*
D03*
X321126D02*
D03*
Y295689D02*
D03*
Y297657D02*
D03*
Y299626D02*
D03*
Y301594D02*
D03*
Y303563D02*
D03*
Y305532D02*
D03*
Y307500D02*
D03*
Y309469D02*
D03*
Y311437D02*
D03*
D68*
X409000Y307000D02*
D03*
M02*
